<svg width="95" height="25" viewBox="0 0 95 25" fill="none" xmlns="http://www.w3.org/2000/svg">
<path d="M3.06365 5.3191V7.51126H0.0878906V9.75007H3.07297V24.862L5.29684 24.8489L5.31551 9.75567L10.3528 9.72768C10.1961 7.86201 8.44424 7.48888 8.44424 7.48888H5.43305V5.49634C5.57788 4.67856 5.99141 3.93246 6.60814 3.37623C7.22486 2.81998 8.00954 2.48539 8.8379 2.42544H10.3416V0.0224609H8.05432C3.08044 0.916118 3.06365 5.3191 3.06365 5.3191Z" fill="#163B6B"/>
<path d="M72.4805 0.0673828V24.8547H74.695V1.7782C74.695 1.7782 74.3629 0.252084 72.4805 0.0673828Z" fill="#163B6B"/>
<path d="M65.7514 7.22611V9.65148C64.9156 8.6732 63.8764 7.88896 62.7064 7.35344C61.5365 6.8179 60.2637 6.54398 58.9771 6.55074C57.7643 6.53342 56.56 6.75736 55.4344 7.20951C54.3088 7.66167 53.2844 8.33305 52.4206 9.18462C51.5568 10.0362 50.871 11.0509 50.4027 12.1699C49.9346 13.2889 49.6934 14.4898 49.6934 15.7028C49.6934 16.9158 49.9346 18.1167 50.4027 19.2356C50.871 20.3547 51.5568 21.3694 52.4206 22.2209C53.2844 23.0726 54.3088 23.7438 55.4344 24.1961C56.56 24.6483 57.7643 24.8722 58.9771 24.8548C60.2626 24.8604 61.5338 24.586 62.7023 24.0505C63.871 23.5151 64.9088 22.7313 65.7439 21.7541V24.366H67.9585V8.93507C67.9585 8.93507 67.6338 7.40335 65.7514 7.22611ZM65.7514 17.228C65.376 18.8935 64.3999 20.3623 63.0094 21.3532C61.6191 22.344 59.9122 22.7875 58.2154 22.5987C56.5185 22.4099 54.9508 21.602 53.8122 20.3298C52.6738 19.0575 52.0441 17.4101 52.0441 15.7028C52.0441 13.9955 52.6738 12.3481 53.8122 11.0758C54.9508 9.80354 56.5185 8.99572 58.2154 8.80691C59.9122 8.61811 61.6191 9.06156 63.0094 10.0524C64.3999 11.0433 65.376 12.512 65.7514 14.1776V17.228Z" fill="#163B6B"/>
<path d="M19.94 6.55079C18.1297 6.55079 16.36 7.08765 14.8548 8.09347C13.3495 9.0993 12.1764 10.5289 11.4837 12.2015C10.791 13.8741 10.6098 15.7146 10.9631 17.4901C11.3164 19.2657 12.1884 20.8965 13.4686 22.1766C14.7489 23.4566 16.38 24.3282 18.1556 24.681C19.9313 25.034 21.7716 24.8525 23.4441 24.1596C25.1165 23.4665 26.546 22.293 27.5514 20.7876C28.557 19.2822 29.0934 17.5123 29.093 15.7019C29.0943 14.4997 28.8583 13.309 28.3988 12.198C27.9393 11.0871 27.265 10.0777 26.4149 9.22769C25.5647 8.37767 24.5552 7.70368 23.4441 7.24435C22.3331 6.785 21.1423 6.54931 19.94 6.55079ZM26.69 17.3138C26.2824 19.037 25.2315 20.5394 23.7524 21.5133C22.2734 22.4872 20.4783 22.859 18.7341 22.5529C16.9899 22.2465 15.4287 21.2853 14.3699 19.8659C13.3111 18.4465 12.8348 16.6761 13.0384 14.917C13.242 13.1579 14.1101 11.5431 15.4652 10.4031C16.8202 9.26303 18.5597 8.68388 20.3277 8.78416C22.0956 8.88444 23.7585 9.65657 24.9759 10.9425C26.1934 12.2285 26.8733 13.9311 26.8766 15.7019C26.8777 16.2447 26.815 16.7857 26.69 17.3138Z" fill="#163B6B"/>
<path d="M19.9406 10.6104C18.9322 10.6096 17.9461 10.9081 17.1072 11.4679C16.2684 12.0278 15.6145 12.8239 15.2284 13.7555C14.8422 14.6872 14.741 15.7124 14.9377 16.7015C15.1344 17.6906 15.6201 18.5992 16.3334 19.3122C17.0466 20.0251 17.9554 20.5105 18.9445 20.7068C19.9337 20.9032 20.9589 20.8018 21.8904 20.4152C22.8219 20.0286 23.6178 19.3745 24.1773 18.5354C24.7368 17.6964 25.035 16.7103 25.0339 15.7018C25.0339 15.033 24.9021 14.3708 24.6462 13.7529C24.3902 13.1351 24.015 12.5737 23.5419 12.1009C23.0689 11.6281 22.5076 11.2532 21.8896 10.9974C21.2715 10.7416 20.6094 10.6101 19.9406 10.6104ZM23.7633 15.116C23.7635 15.1787 23.7566 15.2413 23.7428 15.3025C23.6962 15.4727 23.5932 15.6219 23.4506 15.726C23.3081 15.83 23.1346 15.8826 22.9583 15.8753C22.782 15.8679 22.6133 15.801 22.4801 15.6854C22.3467 15.5699 22.2564 15.4125 22.2242 15.2391H22.2111C22.2111 15.2391 22.1906 13.4854 20.2036 13.1439C19.9967 13.1439 19.7984 13.0618 19.6521 12.9155C19.5059 12.7693 19.4238 12.5709 19.4238 12.3641C19.4238 12.1573 19.5059 11.9589 19.6521 11.8126C19.7984 11.6664 19.9967 11.5842 20.2036 11.5842C20.2036 11.5842 23.2316 11.685 23.7484 14.9014C23.7637 14.9718 23.7687 15.0441 23.7633 15.116Z" fill="#163B6B"/>
<path d="M87.12 15.8378L93.4428 7.46094H90.8346L85.7432 13.9665L80.6984 7.46094H77.8943L84.413 15.8509L77.7227 24.8546H80.3309L85.7432 17.7688L91.1555 24.8546H93.8607L87.12 15.8378Z" fill="#163B6B"/>
<path d="M45.9736 19.3767C45.1704 20.665 43.9669 21.6544 42.5477 22.1932C41.1283 22.7318 39.5714 22.79 38.1156 22.3588C36.66 21.9279 35.3859 21.0312 34.4887 19.8066C33.5915 18.5819 33.1206 17.0968 33.1484 15.5789C33.1764 14.061 33.7012 12.5941 34.6426 11.4031C35.5843 10.2122 36.8904 9.36288 38.3609 8.98546C39.8313 8.60805 41.385 8.72333 42.7837 9.31367C44.1824 9.90398 45.3488 10.9368 46.1042 12.2536L48.0427 11.1828C47.0507 9.44255 45.5147 8.07633 43.6704 7.29415C41.8264 6.51197 39.7766 6.3571 37.8359 6.85337C35.8953 7.34964 34.1712 8.46956 32.929 10.041C31.6869 11.6124 30.9953 13.5483 30.9604 15.5511C30.9255 17.5539 31.5494 19.5128 32.7361 21.1264C33.9231 22.74 35.6068 23.9193 37.529 24.4827C39.4512 25.0463 41.5053 24.9628 43.3755 24.2452C45.2458 23.5277 46.8285 22.2157 47.8803 20.5111L45.9736 19.3767Z" fill="#163B6B"/>
</svg>
